<svg width="1047" height="311" viewBox="0 0 1047 311" fill="none" xmlns="http://www.w3.org/2000/svg">
<path d="M50.133 0L147 114L243.867 0L273.607 35L147 184L20.3931 35L50.133 0Z" fill="#C9CED8"/>
<path d="M0 65L147 238L294 65V138L147 311L0 138V65Z" fill="#C9CED8"/>
<path d="M405.965 194.312L439.461 81.8125H472.078L422.566 224H401.082L405.965 194.312ZM375.105 81.8125L408.504 194.312L413.582 224H391.902L342.684 81.8125H375.105ZM536.141 200.172V153.102C536.141 149.716 535.587 146.819 534.48 144.41C533.374 141.936 531.648 140.016 529.305 138.648C527.026 137.281 524.064 136.598 520.418 136.598C517.293 136.598 514.591 137.151 512.312 138.258C510.034 139.299 508.276 140.829 507.039 142.848C505.802 144.801 505.184 147.112 505.184 149.781H477.059C477.059 145.289 478.1 141.025 480.184 136.988C482.267 132.952 485.294 129.404 489.266 126.344C493.237 123.219 497.957 120.777 503.426 119.02C508.96 117.262 515.145 116.383 521.98 116.383C530.184 116.383 537.475 117.75 543.855 120.484C550.236 123.219 555.249 127.32 558.895 132.789C562.605 138.258 564.461 145.094 564.461 153.297V198.512C564.461 204.306 564.819 209.059 565.535 212.77C566.251 216.415 567.293 219.605 568.66 222.34V224H540.242C538.875 221.135 537.833 217.555 537.117 213.258C536.466 208.896 536.141 204.534 536.141 200.172ZM539.852 159.645L540.047 175.562H524.324C520.613 175.562 517.391 175.986 514.656 176.832C511.922 177.678 509.676 178.883 507.918 180.445C506.16 181.943 504.858 183.701 504.012 185.719C503.23 187.737 502.84 189.951 502.84 192.359C502.84 194.768 503.393 196.949 504.5 198.902C505.607 200.79 507.202 202.288 509.285 203.395C511.368 204.436 513.81 204.957 516.609 204.957C520.841 204.957 524.52 204.111 527.645 202.418C530.77 200.725 533.178 198.642 534.871 196.168C536.629 193.694 537.54 191.35 537.605 189.137L545.027 201.051C543.986 203.72 542.553 206.487 540.73 209.352C538.973 212.216 536.727 214.918 533.992 217.457C531.258 219.931 527.97 221.982 524.129 223.609C520.288 225.172 515.73 225.953 510.457 225.953C503.751 225.953 497.664 224.618 492.195 221.949C486.792 219.215 482.495 215.471 479.305 210.719C476.18 205.901 474.617 200.432 474.617 194.312C474.617 188.779 475.659 183.863 477.742 179.566C479.826 175.27 482.885 171.656 486.922 168.727C491.023 165.732 496.134 163.486 502.254 161.988C508.374 160.426 515.47 159.645 523.543 159.645H539.852ZM613.68 140.895V224H585.555V118.336H611.922L613.68 140.895ZM609.578 167.457H601.961C601.961 159.645 602.97 152.613 604.988 146.363C607.007 140.048 609.839 134.677 613.484 130.25C617.13 125.758 621.46 122.34 626.473 119.996C631.551 117.587 637.215 116.383 643.465 116.383C648.413 116.383 652.938 117.099 657.039 118.531C661.141 119.964 664.656 122.242 667.586 125.367C670.581 128.492 672.859 132.626 674.422 137.77C676.049 142.913 676.863 149.195 676.863 156.617V224H648.543V156.52C648.543 151.832 647.892 148.186 646.59 145.582C645.288 142.978 643.367 141.155 640.828 140.113C638.354 139.007 635.294 138.453 631.648 138.453C627.872 138.453 624.585 139.202 621.785 140.699C619.051 142.197 616.772 144.28 614.949 146.949C613.191 149.553 611.857 152.613 610.945 156.129C610.034 159.645 609.578 163.421 609.578 167.457ZM750.008 118.336V138.258H688.484V118.336H750.008ZM703.719 92.2617H731.844V192.164C731.844 195.224 732.234 197.568 733.016 199.195C733.862 200.823 735.099 201.962 736.727 202.613C738.354 203.199 740.405 203.492 742.879 203.492C744.637 203.492 746.199 203.427 747.566 203.297C748.999 203.102 750.203 202.906 751.18 202.711L751.277 223.414C748.868 224.195 746.264 224.814 743.465 225.27C740.665 225.725 737.573 225.953 734.188 225.953C728.003 225.953 722.599 224.944 717.977 222.926C713.419 220.842 709.904 217.522 707.43 212.965C704.956 208.408 703.719 202.418 703.719 194.996V92.2617ZM794.148 141.383V224H766.023V118.336H792.488L794.148 141.383ZM825.984 117.652L825.496 143.727C824.129 143.531 822.469 143.368 820.516 143.238C818.628 143.043 816.902 142.945 815.34 142.945C811.368 142.945 807.918 143.466 804.988 144.508C802.124 145.484 799.715 146.949 797.762 148.902C795.874 150.855 794.441 153.232 793.465 156.031C792.553 158.831 792.033 162.021 791.902 165.602L786.238 163.844C786.238 157.008 786.922 150.725 788.289 144.996C789.656 139.202 791.642 134.156 794.246 129.859C796.915 125.562 800.171 122.242 804.012 119.898C807.853 117.555 812.247 116.383 817.195 116.383C818.758 116.383 820.353 116.513 821.98 116.773C823.608 116.969 824.943 117.262 825.984 117.652ZM885.945 225.953C877.742 225.953 870.385 224.651 863.875 222.047C857.365 219.378 851.831 215.699 847.273 211.012C842.781 206.324 839.331 200.888 836.922 194.703C834.513 188.453 833.309 181.812 833.309 174.781V170.875C833.309 162.867 834.448 155.543 836.727 148.902C839.005 142.262 842.26 136.5 846.492 131.617C850.789 126.734 855.997 122.991 862.117 120.387C868.237 117.717 875.138 116.383 882.82 116.383C890.307 116.383 896.948 117.62 902.742 120.094C908.536 122.568 913.387 126.083 917.293 130.641C921.264 135.198 924.259 140.667 926.277 147.047C928.296 153.362 929.305 160.393 929.305 168.141V179.859H845.32V161.109H901.668V158.961C901.668 155.055 900.952 151.572 899.52 148.512C898.152 145.387 896.069 142.913 893.27 141.09C890.47 139.267 886.889 138.355 882.527 138.355C878.816 138.355 875.626 139.169 872.957 140.797C870.288 142.424 868.107 144.703 866.414 147.633C864.786 150.562 863.549 154.013 862.703 157.984C861.922 161.891 861.531 166.188 861.531 170.875V174.781C861.531 179.013 862.117 182.919 863.289 186.5C864.526 190.081 866.251 193.173 868.465 195.777C870.743 198.382 873.478 200.4 876.668 201.832C879.923 203.264 883.602 203.98 887.703 203.98C892.781 203.98 897.501 203.004 901.863 201.051C906.29 199.033 910.099 196.005 913.289 191.969L926.961 206.812C924.747 210.003 921.72 213.062 917.879 215.992C914.103 218.922 909.546 221.331 904.207 223.219C898.868 225.042 892.781 225.953 885.945 225.953ZM972.859 140.895V224H944.734V118.336H971.102L972.859 140.895ZM968.758 167.457H961.141C961.141 159.645 962.15 152.613 964.168 146.363C966.186 140.048 969.018 134.677 972.664 130.25C976.31 125.758 980.639 122.34 985.652 119.996C990.73 117.587 996.395 116.383 1002.64 116.383C1007.59 116.383 1012.12 117.099 1016.22 118.531C1020.32 119.964 1023.84 122.242 1026.77 125.367C1029.76 128.492 1032.04 132.626 1033.6 137.77C1035.23 142.913 1036.04 149.195 1036.04 156.617V224H1007.72V156.52C1007.72 151.832 1007.07 148.186 1005.77 145.582C1004.47 142.978 1002.55 141.155 1000.01 140.113C997.534 139.007 994.474 138.453 990.828 138.453C987.052 138.453 983.764 139.202 980.965 140.699C978.23 142.197 975.952 144.28 974.129 146.949C972.371 149.553 971.036 152.613 970.125 156.129C969.214 159.645 968.758 163.421 968.758 167.457Z" fill="#C9CED8"/>
</svg>
